HIERARCHY
ROOT Hips
{
	OFFSET 0.000000 0.000000 0.000000
	CHANNELS 6 Xposition Yposition Zposition Xrotation Yrotation Zrotation
	JOINT LeftUpLeg_virtual
	{
		OFFSET 0.000000 0.000000 0.000000
		CHANNELS 3 Xrotation Yrotation Zrotation
		JOINT LeftUpLeg
		{
			OFFSET 13.026900 -6.336304 -1.092800
			CHANNELS 3 Xrotation Yrotation Zrotation
			JOINT LeftLeg
			{
				OFFSET 0.524474 -46.096886 9.782700
				CHANNELS 3 Xrotation Yrotation Zrotation
				JOINT LeftFoot
				{
					OFFSET -0.524474 -53.427422 -12.948200
					CHANNELS 3 Xrotation Yrotation Zrotation
					JOINT LeftToeBase
					{
						OFFSET 0.192200 -14.009700 16.364100
						CHANNELS 3 Xrotation Yrotation Zrotation
						JOINT LeftToe_End
						{
							OFFSET -1.784700 -0.561700 9.474800
							CHANNELS 3 Xrotation Yrotation Zrotation
							End Site
							{
								OFFSET 0 0 0
							}
						}
					}
				}
			}
		}
	}
	JOINT RightUpLeg_virtual
	{
		OFFSET 0.000000 0.000000 0.000000
		CHANNELS 3 Xrotation Yrotation Zrotation
		JOINT RightUpLeg
		{
			OFFSET -12.883000 -6.336304 -1.092800
			CHANNELS 3 Xrotation Yrotation Zrotation
			JOINT RightLeg
			{
				OFFSET -0.524587 -46.096825 9.782800
				CHANNELS 3 Xrotation Yrotation Zrotation
				JOINT RightFoot
				{
					OFFSET 0.524587 -53.427383 -12.948300
					CHANNELS 3 Xrotation Yrotation Zrotation
					JOINT RightToeBase
					{
						OFFSET -0.192200 -14.009700 16.364100
						CHANNELS 3 Xrotation Yrotation Zrotation
						JOINT RightToe_End
						{
							OFFSET 1.784700 -0.561700 9.474800
							CHANNELS 3 Xrotation Yrotation Zrotation
							End Site
							{
								OFFSET 0 0 0
							}
						}
					}
				}
			}
		}
	}
	JOINT Spine_virtual
	{
		OFFSET 0.000000 0.000000 0.000000
		CHANNELS 3 Xrotation Yrotation Zrotation
		JOINT Spine
		{
			OFFSET 0.072000 7.257294 -0.789700
			CHANNELS 3 Xrotation Yrotation Zrotation
			JOINT Spine1
			{
				OFFSET 0.000000 12.508769 -0.658067
				CHANNELS 3 Xrotation Yrotation Zrotation
				JOINT Spine1_split
				{
					OFFSET 0.000000 12.508769 -0.658067
					CHANNELS 3 Xrotation Yrotation Zrotation
					JOINT Spine2
					{
						OFFSET 0.000000 12.508769 -0.658067
						CHANNELS 3 Xrotation Yrotation Zrotation
						JOINT Neck_virtual
						{
							OFFSET 0.000000 0.000000 0.000000
							CHANNELS 3 Xrotation Yrotation Zrotation
							JOINT Neck
							{
								OFFSET 0.000000 14.033295 7.520400
								CHANNELS 3 Xrotation Yrotation Zrotation
								JOINT Head
								{
									OFFSET 0.000000 8.198502 5.703100
									CHANNELS 3 Xrotation Yrotation Zrotation
									JOINT HeadTop_End
									{
										OFFSET 0.000000 17.760803 13.332701
										CHANNELS 3 Xrotation Yrotation Zrotation
										End Site
										{
											OFFSET 0 0 0
										}
									}
								}
							}
						}
						JOINT LeftShoulder_virtual
						{
							OFFSET 0.000000 0.000000 0.000000
							CHANNELS 3 Xrotation Yrotation Zrotation
							JOINT LeftShoulder
							{
								OFFSET 6.292450 5.785301 -0.669000
								CHANNELS 3 Xrotation Yrotation Zrotation
								JOINT LeftShoulder_split
								{
									OFFSET 6.292450 5.785301 -0.669000
									CHANNELS 3 Xrotation Yrotation Zrotation
									JOINT LeftArm
									{
										OFFSET 13.907140 -6.093903 1.965100
										CHANNELS 3 Xrotation Yrotation Zrotation
										JOINT LeftForeArm
										{
											OFFSET 34.140198 0.000000 0.000000
											CHANNELS 3 Xrotation Yrotation Zrotation
											JOINT LeftHand
											{
												OFFSET 40.960209 0.000000 0.000000
												CHANNELS 3 Xrotation Yrotation Zrotation
												End Site
												{
													OFFSET 0 0 0
												}
											}
										}
									}
								}
							}
						}
						JOINT RightShoulder_virtual
						{
							OFFSET 0.000000 0.000000 0.000000
							CHANNELS 3 Xrotation Yrotation Zrotation
							JOINT RightShoulder
							{
								OFFSET -6.292450 5.785301 -0.669000
								CHANNELS 3 Xrotation Yrotation Zrotation
								JOINT RightShoulder_split
								{
									OFFSET -6.292450 5.785301 -0.669000
									CHANNELS 3 Xrotation Yrotation Zrotation
									JOINT RightArm
									{
										OFFSET -13.907140 -6.093903 1.965100
										CHANNELS 3 Xrotation Yrotation Zrotation
										JOINT RightForeArm
										{
											OFFSET -34.140198 0.000000 0.000000
											CHANNELS 3 Xrotation Yrotation Zrotation
											JOINT RightHand
											{
												OFFSET -40.960209 0.000000 0.000000
												CHANNELS 3 Xrotation Yrotation Zrotation
												End Site
												{
													OFFSET 0 0 0
												}
											}
										}
									}
								}
							}
						}
					}
				}
			}
		}
	}
}
MOTION
Frames: 10
Frame Time: 0.03333333
2.622107 101.403893 -2.490978 0.000000 0.000000 0.000000 8.348381 -67.226137 9.929764 -31.545324 16.017388 25.098380 30.982401 -6.777552 1.201255 -6.969699 -4.455942 -16.467183 -0.777201 -0.375833 -0.339382 0.000000 0.000000 0.000000 6.293771 -66.751808 8.818959 -29.083424 -21.790557 -33.236732 31.542500 7.340650 -2.801215 -11.379740 0.208868 21.647118 3.247736 0.365022 0.788772 0.000000 0.000000 0.000000 8.086418 -64.899911 9.511729 12.249854 -0.462677 -4.838769 7.364535 1.709762 -0.992977 0.559098 3.875164 -0.668687 0.000000 0.000000 0.000000 9.743696 1.797354 -2.118916 7.076758 4.941071 4.782857 -24.614250 52.820394 18.731246 0.000000 0.000000 0.000000 8.996842 1.133463 -1.058069 5.479246 -1.577756 -12.616685 -2.837657 -4.525582 2.502605 -34.197552 14.034190 -27.503111 6.717604 -53.771060 4.193021 0.000000 0.000000 0.000000 7.762723 1.694727 -0.598366 -7.962642 7.863303 15.025287 3.211975 0.586433 -1.742416 17.390705 -6.519947 33.003102 -19.797512 39.525724 20.095916 0.000000 0.000000 0.000000 
2.366880 101.691734 -2.069157 0.000000 0.000000 0.000000 7.905386 -67.137112 9.258777 -31.719668 15.664451 25.369840 31.441922 -6.511213 1.287719 -6.953502 -4.532185 -16.641508 -0.752743 -0.366525 -0.346541 0.000000 0.000000 0.000000 6.152385 -67.069446 8.449840 -28.201226 -21.415850 -32.614020 30.363842 7.403385 -2.765686 -10.787553 0.561067 22.314703 1.904247 0.339891 0.801797 0.000000 0.000000 0.000000 7.894056 -65.177982 9.109419 12.283898 -0.477114 -4.488772 7.382356 1.714707 -1.450484 0.099529 3.197667 -0.531716 0.000000 0.000000 0.000000 8.809715 1.818759 -2.309172 7.478650 4.963863 4.607030 -24.276174 54.025137 17.925750 0.000000 0.000000 0.000000 8.662526 1.161810 -1.532075 5.394886 -2.126291 -12.922714 -3.105941 -2.804252 2.114141 -33.234317 16.500521 -26.885979 7.406708 -51.494470 4.681068 0.000000 0.000000 0.000000 7.330507 1.863757 -0.792926 -9.197256 6.495067 15.123987 3.940061 -0.296109 -0.434560 15.283187 -5.536335 31.415646 -18.656402 38.907797 19.780518 0.000000 0.000000 0.000000 
2.001872 102.078262 -1.549679 0.000000 0.000000 0.000000 6.714655 -67.653215 7.752743 -31.768176 15.138891 25.900270 32.211469 -5.912938 1.363654 -6.930170 -4.409846 -16.687612 -0.814560 -0.336103 -0.358015 0.000000 0.000000 0.000000 5.409732 -67.874260 7.326931 -26.947676 -21.031850 -31.922952 28.876855 7.614699 -2.614052 -10.204694 1.066356 22.825734 1.045377 0.329112 0.834554 0.000000 0.000000 0.000000 7.071661 -65.639825 7.971098 12.035568 -0.514240 -4.050808 6.766212 1.403262 -1.564500 0.278361 2.744188 -0.238864 0.000000 0.000000 0.000000 7.479907 1.383124 -2.046311 7.545530 4.931838 3.753955 -22.028899 56.294313 14.560374 0.000000 0.000000 0.000000 7.581486 0.829466 -1.622948 4.928070 -3.414168 -14.523062 -3.934410 -1.771620 2.775504 -28.261152 20.588716 -26.293845 6.605101 -48.915626 4.171246 0.000000 0.000000 0.000000 6.383480 1.606638 -0.694217 -11.304866 3.957111 14.873616 4.569678 -1.150734 0.128400 13.472086 -9.936161 32.628657 -17.550625 40.945468 19.502968 0.000000 0.000000 0.000000 
1.583240 102.320854 -1.130627 0.000000 0.000000 0.000000 4.795408 -68.493397 5.524945 -31.805913 14.531024 26.549768 33.326730 -5.085740 1.443776 -6.980545 -4.190584 -16.597783 -0.905187 -0.289707 -0.378067 0.000000 0.000000 0.000000 3.847189 -68.721163 5.366070 -25.702126 -20.751827 -31.405667 27.653312 7.837435 -2.378424 -9.847693 1.525165 23.129235 0.765589 0.340497 0.849809 0.000000 0.000000 0.000000 5.778646 -66.125616 6.274753 11.529400 -0.599971 -3.591624 5.647457 0.883432 -1.366922 0.364022 1.829604 0.235334 0.000000 0.000000 0.000000 5.985026 0.611496 -1.440183 7.179118 4.918044 2.455248 -17.287187 58.891284 8.602690 0.000000 0.000000 0.000000 6.073014 0.247987 -1.373032 4.157638 -4.980023 -17.020437 -4.510418 -1.506929 4.358994 -20.466030 24.976101 -26.160159 5.196307 -47.778273 3.385541 0.000000 0.000000 0.000000 5.142703 1.029771 -0.346646 -14.050239 0.927416 13.481865 4.241108 -1.061953 -0.251195 12.471636 -19.612910 36.794451 -16.928931 46.895085 19.344259 0.000000 0.000000 0.000000 
1.203755 102.229797 -0.667622 0.000000 0.000000 0.000000 2.492720 -69.086168 2.968937 -31.973943 13.859968 27.152150 34.809902 -4.207322 1.540591 -7.100489 -4.119820 -16.465851 -0.993607 -0.241408 -0.379562 0.000000 0.000000 0.000000 1.847283 -69.030167 2.995814 -24.719196 -20.684810 -31.204822 27.239537 7.986480 -2.166947 -9.901547 1.668704 23.305333 0.387103 0.371263 0.791835 0.000000 0.000000 0.000000 4.318532 -66.473751 4.333273 10.769869 -0.690660 -3.158573 4.327375 0.302236 -0.929076 0.605240 0.832601 0.197216 0.000000 0.000000 0.000000 4.591450 -0.285873 -0.680538 6.245856 4.975661 0.909281 -10.119971 60.814392 0.528098 0.000000 0.000000 0.000000 4.377300 -0.371151 -0.909587 3.176346 -6.375797 -19.552332 -4.170170 -1.890421 6.427695 -11.495019 28.617458 -26.840156 4.101728 -48.411780 2.883283 0.000000 0.000000 0.000000 3.863053 0.328562 0.064084 -17.270323 -2.150360 10.221056 2.759832 -0.091708 -0.479694 11.948490 -33.668444 43.112560 -18.679517 58.717818 21.036856 0.000000 0.000000 0.000000 
0.946070 101.661774 -0.344345 0.000000 0.000000 0.000000 0.612122 -68.945938 0.889546 -32.460433 13.033832 27.521301 36.634625 -3.427886 1.675912 -7.175185 -4.445824 -16.366390 -1.125170 -0.203995 -0.318940 0.000000 0.000000 0.000000 0.324878 -68.393853 1.143941 -24.059756 -20.806191 -31.324996 27.797830 8.067989 -2.062932 -10.461394 1.368750 23.323764 -0.318970 0.416883 0.639583 0.000000 0.000000 0.000000 3.165900 -66.206601 2.760896 9.833115 -0.653627 -2.779414 3.054329 -0.163560 -0.465891 0.893016 0.344428 -0.224366 0.000000 0.000000 0.000000 3.536071 -1.017966 -0.009356 4.963009 4.924908 -0.664842 -1.697636 61.456744 -8.116270 0.000000 0.000000 0.000000 2.851528 -0.807565 -0.385045 2.231655 -7.151905 -21.274178 -3.571403 -2.031376 7.743882 -3.296675 29.275137 -27.921786 3.625040 -50.705088 2.793061 0.000000 0.000000 0.000000 2.788070 -0.211847 0.342777 -20.869672 -4.627908 4.188317 0.342582 1.218098 0.646839 10.650297 -49.359909 49.605400 -35.915303 76.814807 37.549925 0.000000 0.000000 0.000000 
0.856598 100.722260 -0.276958 0.000000 0.000000 0.000000 -0.353993 -67.905549 -0.195741 -33.306205 11.971016 27.572335 38.521208 -2.845997 1.851260 -7.106888 -5.266146 -16.408466 -1.283690 -0.180181 -0.166163 0.000000 0.000000 0.000000 -0.350592 -66.881417 0.265397 -23.965524 -21.157293 -31.813047 29.479677 8.059499 -2.059626 -11.472522 0.579391 22.982079 -0.630465 0.476026 0.461607 0.000000 0.000000 0.000000 2.597312 -65.228184 1.906464 8.809903 -0.352307 -2.482439 2.051227 -0.361399 -0.153545 0.928490 0.433785 -0.471342 0.000000 0.000000 0.000000 2.955163 -1.370805 0.395682 3.502446 4.864955 -1.845919 5.848143 60.816763 -15.036624 0.000000 0.000000 0.000000 1.649318 -0.854011 -0.031805 1.458232 -7.128487 -21.690210 -3.005859 -1.787085 7.880619 2.338140 25.682097 -28.001465 4.104551 -53.612603 3.298179 0.000000 0.000000 0.000000 2.079047 -0.466368 0.295777 -24.493991 -5.605778 -4.401000 -2.477485 0.996103 3.385169 4.459421 -64.094085 51.341214 -155.370698 75.669945 156.059181 0.000000 0.000000 0.000000 
1.001011 99.580086 -0.362495 0.000000 0.000000 0.000000 -0.215736 -66.085591 -0.147031 -34.405609 10.603922 27.186419 40.064336 -2.372616 2.002761 -6.927062 -6.434177 -16.534344 -1.298807 -0.172780 0.048188 0.000000 0.000000 0.000000 -0.263385 -64.775684 0.298227 -24.567188 -21.722624 -32.684812 32.116902 7.954863 -2.130594 -12.638142 -0.630821 22.205486 -0.217622 0.546446 0.318193 0.000000 0.000000 0.000000 2.613609 -63.549077 1.800389 7.820610 0.366315 -2.273954 1.503345 -0.194544 -0.087784 0.772490 1.033291 -0.401179 0.000000 0.000000 0.000000 2.886020 -1.259758 0.417018 2.026251 4.751052 -2.389676 10.798329 59.208246 -18.748241 0.000000 0.000000 0.000000 0.869749 -0.429035 0.019004 0.882508 -6.449464 -20.586639 -2.197524 -0.896598 6.659668 4.623066 17.627572 -26.140833 4.703659 -55.863670 3.868057 0.000000 0.000000 0.000000 1.764232 -0.371386 -0.172872 -27.488627 -4.462576 -14.248709 -3.847115 -1.297638 5.910546 -19.530492 -73.906561 34.324173 -171.591742 56.470153 171.497772 0.000000 0.000000 0.000000 
1.368109 98.412399 -0.603054 0.000000 0.000000 0.000000 0.710342 -63.608083 0.718993 -35.679986 9.006236 26.325419 41.019838 -1.922006 2.090193 -6.725408 -7.746305 -16.629398 -1.126315 -0.169273 0.254755 0.000000 0.000000 0.000000 0.136268 -62.413340 0.863537 -25.775850 -22.346569 -33.859812 35.206985 7.899141 -2.259187 -13.607975 -1.961508 21.219303 0.511048 0.603401 0.226184 0.000000 0.000000 0.000000 3.021064 -61.301658 2.294383 7.009273 1.565157 -2.092442 1.383565 0.328273 -0.260701 0.283898 1.665634 0.819946 0.000000 0.000000 0.000000 3.177661 -0.656251 0.070471 0.652319 4.513071 -2.212801 12.726026 57.022114 -19.205259 0.000000 0.000000 0.000000 0.579048 0.399731 -0.247913 0.472318 -5.466562 -18.407391 -1.213717 0.242988 4.521645 4.357685 5.524867 -22.632599 4.177307 -56.755074 3.645004 0.000000 0.000000 0.000000 1.835603 0.118093 -0.926079 -28.627230 -1.159763 -23.648984 -3.594201 -4.191062 6.365872 -56.856004 -71.571872 2.732222 -174.233686 45.400950 173.698117 0.000000 0.000000 0.000000 
1.933595 97.406342 -1.019138 0.000000 0.000000 0.000000 1.730844 -60.858133 1.786636 -36.948731 7.380346 25.187736 41.406540 -1.481066 2.086403 -6.525349 -8.994594 -16.653687 -0.795791 -0.154897 0.392095 0.000000 0.000000 0.000000 0.532581 -60.061385 1.621569 -27.399085 -22.920296 -35.210438 38.187547 7.960592 -2.443615 -14.164217 -3.076388 20.321240 0.993258 0.637802 0.187246 0.000000 0.000000 0.000000 3.681402 -58.768867 3.128122 6.465060 3.229401 -1.886904 1.596435 1.180289 -0.550035 0.507501 1.787798 1.464785 0.000000 0.000000 0.000000 3.629008 0.345155 -0.459337 -0.643631 4.247447 -1.433816 12.027373 54.299358 -17.313898 0.000000 0.000000 0.000000 0.715873 1.537793 -0.742067 0.142352 -4.844931 -16.030428 -0.589852 1.070618 2.754286 3.580004 -8.272321 -18.522857 2.515925 -57.078129 2.643322 0.000000 0.000000 0.000000 2.257251 0.958406 -1.735568 -27.251381 3.534936 -30.518883 -1.878643 -5.953629 4.668978 -66.503585 -59.528876 -2.054215 -174.427144 44.577974 173.710016 0.000000 0.000000 0.000000 
